<svg width="64" height="64" viewBox="0 0 64 64" fill="none" xmlns="http://www.w3.org/2000/svg">
<rect width="64" height="64" rx="6" fill="white"/>
<path d="M29.3346 26.6669L25.0013 31.0002C25.4146 31.1602 25.748 31.3602 26.028 31.5202C26.5213 31.8269 26.8146 32.0002 27.5613 32.0002C28.308 32.0002 28.6013 31.8269 29.0946 31.5202C29.708 31.1602 30.5346 30.6669 32.0146 30.6669C33.4946 30.6669 34.3213 31.1602 34.9213 31.5202C35.4146 31.8135 35.7213 32.0002 36.4546 32.0002C37.188 32.0002 37.4946 31.8269 37.988 31.5202C38.148 31.4269 38.3346 31.3202 38.5346 31.2135L29.9746 22.6669C27.908 20.6002 26.0013 19.9869 22.668 20.0002V23.3335C25.0946 23.3202 26.5213 23.8535 28.0013 25.3335L29.3346 26.6669ZM45.3346 38.0002H45.308H45.3346ZM23.1346 36.6669C23.868 36.6669 24.1746 36.8535 24.668 37.1469C25.268 37.5069 26.0946 38.0002 27.5746 38.0002C29.0546 38.0002 29.8813 37.5069 30.4813 37.1469C30.9746 36.8402 31.268 36.6669 32.0146 36.6669C32.748 36.6669 33.0546 36.8535 33.548 37.1469C34.148 37.5069 34.9746 38.0002 36.4546 38.0002C37.9346 38.0002 38.7613 37.5069 39.3613 37.1469C39.8546 36.8402 40.148 36.6669 40.8946 36.6669C41.628 36.6669 41.9346 36.8535 42.428 37.1469C43.028 37.5069 43.8413 37.9869 45.308 38.0002V35.3335C44.5746 35.3335 44.268 35.1469 43.7746 34.8535C43.1746 34.4935 42.348 34.0002 40.868 34.0002C39.388 34.0002 38.5613 34.4935 37.9613 34.8535C37.468 35.1602 37.1613 35.3335 36.428 35.3335C35.6946 35.3335 35.388 35.1469 34.8946 34.8535C34.2946 34.4935 33.468 34.0002 31.988 34.0002C30.508 34.0002 29.6813 34.4935 29.0813 34.8535C28.588 35.1602 28.2946 35.3335 27.548 35.3335C26.8146 35.3335 26.508 35.1469 26.0146 34.8535C25.4146 34.4935 24.588 34.0002 23.108 34.0002C21.628 34.0002 20.8013 34.4935 20.2013 34.8535C19.708 35.1602 19.4146 35.3335 18.668 35.3335V38.0002C20.148 38.0002 20.9746 37.5069 21.6013 37.1469C22.0946 36.8402 22.4013 36.6669 23.1346 36.6669ZM40.8946 40.0002C39.4146 40.0002 38.588 40.4935 37.988 40.8535C37.4946 41.1602 37.188 41.3335 36.4546 41.3335C35.7213 41.3335 35.4146 41.1469 34.9213 40.8535C34.3213 40.4935 33.4946 40.0002 32.0146 40.0002C30.5346 40.0002 29.708 40.4935 29.0946 40.8535C28.6013 41.1602 28.308 41.3335 27.5613 41.3335C26.8146 41.3335 26.5213 41.1602 26.028 40.8535C25.428 40.4935 24.6013 40.0002 23.1213 40.0002C21.6413 40.0002 20.8146 40.4935 20.2013 40.8535C19.708 41.1602 19.4146 41.3335 18.668 41.3335V44.0002C20.148 44.0002 20.9746 43.5069 21.588 43.1469C22.0813 42.8402 22.388 42.6669 23.1213 42.6669C23.8546 42.6669 24.1613 42.8402 24.6546 43.1469C25.2546 43.5069 26.0813 44.0002 27.5613 44.0002C29.0413 44.0002 29.868 43.5069 30.4813 43.1469C30.9746 42.8402 31.268 42.6669 32.0146 42.6669C32.748 42.6669 33.0546 42.8535 33.548 43.1469C34.148 43.5069 34.9746 44.0002 36.4546 44.0002C37.9346 44.0002 38.748 43.5069 39.3613 43.1469C39.8546 42.8402 40.148 42.6669 40.8946 42.6669C41.628 42.6669 41.9346 42.8535 42.428 43.1469C43.028 43.5069 43.8546 44.0002 45.3346 44.0002V41.3335C44.588 41.3335 44.2946 41.1602 43.8013 40.8535C43.2013 40.4935 42.3746 40.0002 40.8946 40.0002Z" fill="#FF0101"/>
<path d="M38.0013 26.6667C39.8423 26.6667 41.3346 25.1743 41.3346 23.3333C41.3346 21.4924 39.8423 20 38.0013 20C36.1604 20 34.668 21.4924 34.668 23.3333C34.668 25.1743 36.1604 26.6667 38.0013 26.6667Z" fill="#FF0101"/>
</svg>
