<?xml version="1.0" encoding="utf-8"?>
<!-- Generator: Adobe Illustrator 25.2.0, SVG Export Plug-In . SVG Version: 6.00 Build 0)  -->
<svg version="1.1" id="Calque_1" xmlns="http://www.w3.org/2000/svg" xmlns:xlink="http://www.w3.org/1999/xlink" x="0px" y="0px"
	 viewBox="0 0 64 64" style="enable-background:new 0 0 64 64;" xml:space="preserve">
<style type="text/css">
	.st0{fill:#FFFFFF;}
	.st1{fill:#FF0101;}
</style>
<path class="st0" d="M58,0H6C2.7,0,0,2.7,0,6v52c0,3.3,2.7,6,6,6h52c3.3,0,6-2.7,6-6V6C64,2.7,61.3,0,58,0z M48,38.9l-3.4,3.4
	l2.3,2.3l-2.3,2.3l-2.3-2.3L38.9,48l-2.3-2.3L34.3,48L32,45.7l5.7-5.7L24,26.3L18.3,32L16,29.7l2.3-2.3L16,25.1l3.4-3.4l-2.3-2.3
	l2.3-2.3l2.3,2.3l3.4-3.4l2.3,2.3l2.3-2.3l2.3,2.3L26.3,24L40,37.7l5.7-5.7l2.3,2.3l-2.3,2.3L48,38.9z"/>
<path class="st1" d="M45.7,36.6l2.3-2.3L45.7,32L40,37.7L26.3,24l5.7-5.7L29.7,16l-2.3,2.3L25.1,16l-3.4,3.4l-2.3-2.3l-2.3,2.3
	l2.3,2.3L16,25.1l2.3,2.3L16,29.7l2.3,2.3l5.7-5.7L37.7,40L32,45.7l2.3,2.3l2.3-2.3l2.3,2.3l3.4-3.4l2.3,2.3l2.3-2.3l-2.3-2.3
	l3.4-3.4L45.7,36.6z"/>
</svg>
