<?xml version="1.0" encoding="utf-8"?>
<!-- Generator: Adobe Illustrator 25.2.0, SVG Export Plug-In . SVG Version: 6.00 Build 0)  -->
<svg version="1.1" id="Calque_1" xmlns="http://www.w3.org/2000/svg" xmlns:xlink="http://www.w3.org/1999/xlink" x="0px" y="0px"
	 viewBox="0 0 58 58" style="enable-background:new 0 0 58 58;" xml:space="preserve">
<style type="text/css">
	.st0{fill:#FF0101;}
	.st1{fill:#020203;}
</style>
<path class="st0" d="M29.3,57.7c15.8,0,28.6-12.9,28.6-28.9C57.9,12.9,45.1,0,29.3,0C13.5,0,0.7,12.9,0.7,28.9
	C0.7,44.8,13.5,57.7,29.3,57.7z"/>
<path class="st1" d="M24.4,36.1l8.7,2l-6,9.4c-0.6,1.1-0.3,2.5,0.9,3.2c1,0.6,2.3,0.3,3-0.7l7.7-12.2c0.4-0.6,0.5-1.5,0.3-2.2
	c-0.3-0.7-0.9-1.2-1.6-1.3l-6.7-1.6l6.1-9.6l3.8,6c0.3,0.5,0.9,0.8,1.5,0.8c0.3,0,0.6-0.1,0.9-0.3l8.6-5.2c0.9-0.5,1.1-1.6,0.6-2.5
	c-0.5-0.9-1.6-1.1-2.5-0.6l-7.2,4.3l-3.5-6.8c-0.9-1-2-1.9-3.1-2.7L25.8,11c-0.7-0.3-1.4-0.3-2,0.3L15.2,19
	c-0.8,0.7-0.8,1.8-0.1,2.5c0.7,0.8,1.8,0.8,2.5,0.1l7.7-7l5.3,2.7l-9.2,14.3L7.9,48c1.1,1.2,2.2,2.3,3.5,3.3"/>
<path class="st1" d="M41.7,16.4c2.6,0,4.8-2.2,4.8-4.8c0-2.7-2.1-4.8-4.8-4.8c-2.6,0-4.8,2.2-4.8,4.8C36.9,14.3,39,16.4,41.7,16.4z"
	/>
</svg>
