<svg width="60" height="60" viewBox="0 0 60 60" fill="none" xmlns="http://www.w3.org/2000/svg">
<rect width="60" height="60" rx="6" fill="#4AB8FF" fill-opacity="0.1"/>
<path d="M39.2353 24.4707C38.8824 24.1178 38.4118 23.8825 38.0588 23.8825C37.9412 23.4119 37.8235 23.059 37.4706 22.706C36.6471 21.8825 35.2353 21.8825 34.4118 22.706C33.7059 23.4119 33.5882 24.5884 34.1765 25.4119L31.5882 27.8825L30.2941 26.5884L27.7059 29.1766C27.4706 29.059 27.1176 29.059 26.8824 29.059C23.5882 29.059 21 31.6472 21 34.9413C21 38.2354 23.5882 40.8237 26.8824 40.8237C30.1765 40.8237 32.7647 38.2354 32.7647 34.9413C32.7647 34.706 32.7647 34.3531 32.6471 34.1178L35.2353 31.5296L33.9412 30.2354L36.4118 27.7648C37.2353 28.3531 38.4118 28.2354 39.1176 27.5296C40.0588 26.706 40.0588 25.2943 39.2353 24.4707Z" fill="#4AB8FF"/>
</svg>
