<svg width="60" height="60" viewBox="0 0 60 60" fill="none" xmlns="http://www.w3.org/2000/svg">
<rect opacity="0.101652" width="60" height="60" rx="6" fill="#F9CE23"/>
<path d="M37.6584 35.0999C37.2259 36.0574 37.0197 36.4849 36.4622 37.3312C35.6859 38.5124 34.5922 39.9849 33.2359 39.9974C32.0309 40.0087 31.7209 39.2137 30.0859 39.2224C28.4509 39.2312 28.1084 40.0112 26.9034 39.9999C25.5472 39.9874 24.5109 38.6587 23.7334 37.4762C21.5634 34.1712 21.3359 30.2937 22.6747 28.2324C23.6259 26.7662 25.1272 25.9099 26.5397 25.9099C27.9772 25.9099 28.8797 26.6974 30.0684 26.6974C31.2209 26.6974 31.9234 25.9087 33.5859 25.9087C34.8422 25.9087 36.1734 26.5924 37.1209 27.7737C34.0147 29.4774 34.5197 33.9137 37.6584 35.0999V35.0999Z" fill="#FDCC0C"/>
<path d="M22.8455 35.0999C23.278 36.0574 23.4843 36.4849 24.0418 37.3312C24.818 38.5124 25.9118 39.9849 27.268 39.9974C28.473 40.0087 28.783 39.2137 30.418 39.2224C32.053 39.2312 32.3955 40.0112 33.6005 39.9999C34.9568 39.9874 35.993 38.6587 36.7705 37.4762C38.9405 34.1712 39.168 30.2937 37.8293 28.2324C36.878 26.7662 35.3768 25.9099 33.9643 25.9099C32.5268 25.9099 31.6243 26.6974 30.4355 26.6974C29.283 26.6974 28.5805 25.9087 26.918 25.9087C25.6618 25.9087 24.3305 26.5924 23.383 27.7737C26.4893 29.4774 25.9843 33.9137 22.8455 35.0999V35.0999Z" fill="#FDCC0C"/>
<path d="M33.0073 23.3737C33.6898 22.4987 34.2073 21.2625 34.0186 20C32.9048 20.0763 31.6023 20.785 30.8411 21.7088C30.1511 22.5475 29.5811 23.7912 29.8023 25C31.0186 25.0375 32.2761 24.3112 33.0073 23.3737V23.3737Z" fill="#FDCC0C"/>
</svg>
