<svg xmlns="http://www.w3.org/2000/svg" width="64" height="64" fill="none" xmlns:v="https://vecta.io/nano"><path d="M32 64c17.673 0 32-14.327 32-32S49.673 0 32 0 0 14.327 0 32s14.327 32 32 32z" fill="#ff0101"/><path d="M45.783 18.216c2.952 0 5.345-2.393 5.345-5.345s-2.393-5.345-5.345-5.345-5.345 2.393-5.345 5.345 2.393 5.345 5.345 5.345z" fill="#020203"/><mask id="A" maskUnits="userSpaceOnUse" x="0" y="0" width="64" height="64" mask-type="alpha"><path d="M32 64c17.673 0 32-14.327 32-32S49.673 0 32 0 0 14.327 0 32s14.327 32 32 32z" fill="#ff0101"/></mask><g mask="url(#A)"><path d="M44.242 32.634c.352.563.985.914 1.688.914.352 0 .703-.07 1.055-.281L56.62 27.5c.985-.563 1.266-1.829.703-2.743-.563-.985-1.829-1.266-2.743-.703l-8.018 4.782-3.868-7.525a35.34 35.34 0 0 0-3.446-3.024L27.785 12.52c-.774-.352-1.618-.281-2.251.281l-9.565 8.651c-.844.774-.914 2.04-.141 2.813.774.844 2.04.914 2.813.141l8.651-7.736 5.978 3.024-10.268 15.895-23.42 27.71c-.914 1.055-.844 2.743.281 3.657 1.055.914 2.743.844 3.657-.281l22.716-26.233 9.776 2.251-6.681 10.479c-.703 1.266-.281 2.813.985 3.517 1.125.633 2.602.352 3.376-.774l8.58-13.574c.492-.703.563-1.618.281-2.391-.352-.774-.985-1.336-1.828-1.477l-7.525-1.758 6.822-10.69 4.22 6.611z" fill="#020203"/></g></svg>