<?xml version="1.0" encoding="utf-8"?>
<!-- Generator: Adobe Illustrator 25.2.0, SVG Export Plug-In . SVG Version: 6.00 Build 0)  -->
<svg version="1.1" id="Calque_1" xmlns:v="https://vecta.io/nano"
	 xmlns="http://www.w3.org/2000/svg" xmlns:xlink="http://www.w3.org/1999/xlink" x="0px" y="0px" viewBox="0 0 58 58"
	 style="enable-background:new 0 0 58 58;" xml:space="preserve">
<style type="text/css">
	.st0{fill:#020203;}
</style>
<g>
	<path class="st0" d="M29.3,0c15.8,0,28.6,12.9,28.6,28.8c0,16-12.8,28.9-28.6,28.9c-6.8,0-13-2.4-17.9-6.4l13-15.2l8.7,2l-6,9.4
		c-0.6,1.1-0.3,2.5,0.9,3.2c1,0.6,2.3,0.3,3-0.7l7.7-12.2c0.4-0.6,0.5-1.5,0.3-2.2c-0.3-0.7-0.9-1.2-1.6-1.3l-6.7-1.6l6.1-9.6l3.8,6
		c0.3,0.5,0.9,0.8,1.5,0.8c0.3,0,0.6-0.1,0.9-0.3l8.6-5.2c0.9-0.5,1.1-1.6,0.6-2.5c-0.5-0.9-1.6-1.1-2.5-0.6l-7.2,4.3L39,18.8
		c-0.9-1-2-1.9-3.1-2.7L25.8,11c-0.7-0.3-1.4-0.3-2,0.3L15.2,19c-0.7,0.6-0.8,1.6-0.2,2.3c0,0.1,0.1,0.1,0.1,0.2
		c0.6,0.7,1.6,0.8,2.3,0.2c0.1,0,0.1-0.1,0.2-0.1l7.7-7l5.3,2.7l-9.2,14.3L7.9,48c-4.5-5.1-7.2-11.8-7.2-19.1
		C0.7,12.9,13.5,0,29.3,0H0v58h58V0H29.3z"/>
	<circle class="st0" cx="41.7" cy="11.6" r="4.8"/>
</g>
</svg>
