<?xml version="1.0" encoding="utf-8"?>
<!-- Generator: Adobe Illustrator 25.2.0, SVG Export Plug-In . SVG Version: 6.00 Build 0)  -->
<svg version="1.1" id="Calque_1" xmlns="http://www.w3.org/2000/svg" xmlns:xlink="http://www.w3.org/1999/xlink" x="0px" y="0px"
	 viewBox="0 0 110.5 25" style="enable-background:new 0 0 110.5 25;" xml:space="preserve">
<style type="text/css">
	.st0{fill:#E60000;}
</style>
<rect x="0.7" y="0.3" class="st0" width="109.3" height="24.3"/>
<g>
	<path d="M26.1,8.5C25.5,8.2,24.8,8,24.1,8C23.2,7.8,22.5,8,22,8.4c-0.6,0.4-1.1,0.9-1.4,1.6c-0.3,0.7-0.5,1.5-0.5,2.3
		c0,0.9,0.2,1.7,0.5,2.4c0.3,0.7,0.8,1.2,1.4,1.6c0.6,0.4,1.3,0.6,2.1,0.6c0.8,0,1.4-0.2,2.1-0.6c0.6-0.4,1.1-1,1.4-1.6
		c0.3-0.7,0.5-1.5,0.5-2.3s-0.2-1.6-0.5-2.3C27.2,9.4,26.8,8.9,26.1,8.5z"/>
	<path d="M41.7,8.5c-0.6-0.4-1.3-0.6-2.1-0.6c-0.8,0-1.5,0.2-2.1,0.6c-0.6,0.4-1.1,0.9-1.4,1.6c-0.3,0.7-0.5,1.5-0.5,2.3
		s0.2,1.6,0.5,2.3c0.3,0.7,0.8,1.2,1.4,1.6c0.6,0.4,1.3,0.6,2.1,0.6c0.8,0,1.5-0.2,2.1-0.6c0.6-0.4,1.1-0.9,1.4-1.6
		c0.3-0.7,0.5-1.5,0.5-2.3s-0.2-1.6-0.5-2.3C42.7,9.4,42.3,8.9,41.7,8.5z"/>
	<path d="M88.4,7.8c-0.6-0.1-1.2,0.1-1.7,0.4c-0.5,0.3-0.9,0.6-1.3,1.1c-0.3,0.5-0.6,1-0.6,1.6h7.2c-0.1-1-0.5-1.8-1.1-2.3
		C90.3,8,89.4,7.8,88.4,7.8z"/>
	<path d="M103.4,7.8c-0.6-0.1-1.2,0.1-1.7,0.4c-0.5,0.3-0.9,0.6-1.3,1.1c-0.3,0.5-0.6,1-0.6,1.6h7.2c-0.1-1-0.5-1.8-1.1-2.3
		C105.3,8,104.4,7.8,103.4,7.8z"/>
	<path d="M110,0H0v25h110h0.4V0H110z M14.1,16.6c-0.6,0.9-1.4,1.5-2.5,2c-1.1,0.5-2.2,0.7-3.5,0.7c-1.4,0.1-2.8-0.2-3.8-0.8
		c-1.1-0.5-1.9-1.3-2.6-2.2s-0.9-2-1-3.3h3c0.1,1.1,0.6,2,1.3,2.7c0.8,0.7,1.9,1,3.1,1c1.1,0,2-0.3,2.7-0.7c0.7-0.5,1.1-1.1,1.1-2
		c0-0.6-0.2-1.1-0.6-1.5c-0.4-0.4-0.9-0.6-1.5-0.8S8.2,11.3,7,11H6.9c-1.1-0.2-2.1-0.4-3-0.8C3.1,9.8,2.4,9.3,1.9,8.6
		C1.4,7.9,1.1,6.9,1.1,5.8c0-1.1,0.3-2,0.8-2.9s1.3-1.5,2.3-2c1-0.4,2.1-0.7,3.4-0.7c1.3,0,2.5,0.3,3.5,0.8c1.1,0.5,1.9,1.1,2.5,2
		c0.6,0.9,0.9,1.9,0.9,3h-3c-0.1-1-0.6-1.7-1.3-2.3C9.7,3.2,8.7,2.9,7.7,2.9c-1.1,0-1.9,0.3-2.6,0.7C4.4,4,4.1,4.7,4.1,5.6
		c0,0.6,0.2,1.1,0.6,1.5c0.4,0.3,0.9,0.6,1.5,0.8C6.8,8,7.7,8.2,8.9,8.5C10.1,8.7,11.1,9,12,9.3c0.9,0.3,1.6,0.9,2.1,1.6
		c0.6,0.7,0.8,1.6,0.8,2.8C14.9,14.7,14.6,15.7,14.1,16.6z M30.1,16c-0.6,1.1-1.3,1.9-2.3,2.5s-2.1,0.9-3.3,0.9
		c-1.2,0-2.2-0.3-3-0.8c-0.6-0.4-1.1-0.9-1.4-1.4v7.4h-2.8v-19h2.5l0.4,2.2c0.4-0.6,0.9-1.1,1.5-1.5c0.8-0.5,1.8-0.8,3-0.8
		c1.3-0.1,2.3,0.3,3.3,0.8c0.9,0.6,1.7,1.3,2.3,2.4c0.6,1.1,0.8,2.3,0.8,3.7C30.9,13.8,30.7,15,30.1,16z M45.6,16.1
		c-0.6,1.1-1.4,1.8-2.5,2.5c-1.1,0.6-2.3,0.9-3.6,0.9c-1.4-0.1-2.6-0.4-3.6-1c-1.1-0.6-1.9-1.4-2.5-2.5c-0.6-1.1-0.9-2.3-0.9-3.6
		c0-1.4,0.3-2.6,0.9-3.7c0.6-1.1,1.4-1.8,2.5-2.4c1.1-0.6,2.3-0.9,3.6-0.9c1.4,0,2.6,0.3,3.6,0.9c1.1,0.6,1.9,1.4,2.5,2.4
		c0.6,1.1,0.9,2.3,0.9,3.7C46.5,13.8,46.2,15,45.6,16.1z M56.2,8.3h-1.3c-1.2,0-2,0.4-2.6,1.1c-0.5,0.8-0.8,1.8-0.8,3v6.8h-2.8V5.6
		h2.6l0.3,2.1c0.3-0.5,0.8-1,1.2-1.3c0.6-0.5,1.6-0.7,2.8-0.7h0.6V8.3z M64.5,19.1h-2.8c-1.3,0-2.2-0.3-2.8-0.9s-0.9-1.5-0.9-2.8
		V1.7h2.8v3.8h3.3V8h-3.3v7.1c0,0.6,0.1,1,0.3,1.1c0.2,0.3,0.6,0.3,1.1,0.3h2.2V19.1z M79,16.6c-0.6,0.9-1.4,1.5-2.5,2
		c-1.1,0.5-2.2,0.7-3.5,0.7c-1.4,0.1-2.7-0.2-3.8-0.8c-1.1-0.5-1.9-1.3-2.6-2.2c-0.6-1-0.9-2-1-3.3h3c0.1,1.1,0.6,2,1.3,2.7
		c0.8,0.7,1.9,1,3.1,1c1.1,0,2-0.3,2.7-0.7c0.7-0.5,1.1-1.1,1.1-2c0-0.6-0.2-1.1-0.6-1.5c-0.4-0.4-0.9-0.6-1.5-0.8
		c-0.6-0.2-1.6-0.4-2.8-0.6h-0.1c-1.1-0.2-2.1-0.4-3-0.8c-0.8-0.4-1.5-0.9-2.1-1.6C66.3,7.9,66,6.9,66,5.8c0-1.1,0.3-2,0.8-2.9
		c0.6-0.8,1.3-1.5,2.3-2c1-0.4,2.1-0.7,3.4-0.7c1.3,0,2.5,0.3,3.5,0.8c1.1,0.5,1.9,1.1,2.5,2c0.6,0.9,0.9,1.9,0.9,3h-3
		c-0.1-1-0.6-1.7-1.3-2.3s-1.6-0.9-2.7-0.9S70.6,3.1,70,3.6c-0.6,0.4-0.9,1.1-0.9,2c0,0.6,0.2,1.1,0.6,1.5c0.4,0.3,0.9,0.6,1.5,0.8
		c0.6,0.2,1.5,0.4,2.7,0.6C75,8.7,76,9,76.9,9.3c0.9,0.3,1.6,0.9,2.1,1.6c0.6,0.7,0.8,1.6,0.8,2.8C79.9,14.7,79.6,15.7,79,16.6z
		 M95,12.4c0,0.2,0,0.4-0.1,0.6H84.7c0,0.1,0,0.1,0,0.1v0.1c0.1,0.8,0.2,1.5,0.5,2c0.3,0.6,0.8,1,1.3,1.3c0.6,0.3,1.2,0.5,1.9,0.5
		c0.9,0,1.6-0.2,2.2-0.6c0.6-0.4,1-1,1.2-1.8h2.9c-0.2,0.9-0.5,1.7-1.1,2.4c-0.6,0.7-1.3,1.3-2.1,1.7c-0.9,0.4-1.8,0.6-2.9,0.6
		c-1.4,0.1-2.7-0.3-3.7-0.8c-1.1-0.6-1.9-1.4-2.5-2.4c-0.6-1.1-0.9-2.3-0.9-3.7c0-1.4,0.3-2.7,0.8-3.7c0.6-1,1.3-1.8,2.3-2.4
		c1-0.6,2.1-0.9,3.5-0.9c1.3,0,2.5,0.3,3.5,0.8c1,0.5,1.8,1.3,2.3,2.3c0.6,1,0.9,2.2,0.9,3.4C95,12.1,95,12.2,95,12.4z M110,12.4
		c0,0.2,0,0.4-0.1,0.6H99.7c0,0.1,0,0.1,0,0.1v0.1c0.1,0.8,0.2,1.5,0.5,2c0.3,0.6,0.8,1,1.3,1.3c0.6,0.3,1.2,0.5,1.9,0.5
		c0.9,0,1.6-0.2,2.2-0.6c0.6-0.4,1-1,1.2-1.8h2.9c-0.2,0.9-0.5,1.7-1.1,2.4c-0.6,0.7-1.3,1.3-2.1,1.7c-0.9,0.4-1.8,0.6-2.9,0.6
		c-1.4,0.1-2.6-0.3-3.7-0.8c-1.1-0.6-1.9-1.4-2.5-2.4c-0.6-1.1-0.9-2.3-0.9-3.7c0-1.4,0.3-2.7,0.8-3.7c0.6-1,1.3-1.8,2.3-2.4
		c1-0.6,2.1-0.9,3.5-0.9s2.5,0.3,3.5,0.8c1,0.5,1.8,1.3,2.3,2.3c0.6,1,0.9,2.2,0.9,3.4C110,12.1,110,12.2,110,12.4z"/>
</g>
</svg>
